# xmcd CD database file
#
# Track frame offsets:
#	150
#	27210
#	47620
#	79732
#	121750
#	148122
#	169825
#	186175
#	198550
#
# Disc length: 3015 seconds
#
# Revision: 0
# Processed by: cddbd v1.5.2PL0 Copyright (c) Steve Scherf et al.
# Submitted via: CDex 1.70beta2
#
DISCID=760bc509
DTITLE=Satoko Fujii - Indication
DYEAR=1996
DGENRE=Jazz
TTITLE0=Itsuki No Komoriuta
TTITLE1=Vague
TTITLE2=210
TTITLE3=Tsuki No Sabaku
TTITLE4=Haru Yo Koi
TTITLE5=Indication
TTITLE6=I Haven't Seen You Since Then
TTITLE7=Autumn
TTITLE8=Ballad
EXTD=YEAR: 1996
EXTT0=
EXTT1=
EXTT2=
EXTT3=
EXTT4=
EXTT5=
EXTT6=
EXTT7=
EXTT8=
PLAYORDER=
